HIERARCHY
ROOT SpineBase
{
  OFFSET 0.000000 0.000000 0.000000
  CHANNELS 6 Xposition Yposition Zposition Zrotation Xrotation Yrotation
  JOINT SpineMid
  {
    OFFSET 0.000000 27.246763 0.000000
    CHANNELS 3 Zrotation Xrotation Yrotation
    JOINT SpineShoulder
    {
      OFFSET 0.154330 20.211140 -0.669142
      CHANNELS 3 Zrotation Xrotation Yrotation
      JOINT Neck
      {
        OFFSET 0.300394 6.650509 -0.506972
        CHANNELS 3 Zrotation Xrotation Yrotation
        JOINT Head
        {
          OFFSET 3.697661 10.831007 2.768703
          CHANNELS 3 Zrotation Xrotation Yrotation
          End Site
          {
            OFFSET 0 0 0
          }
        }
      }
      JOINT ShoulderLeft
      {
        OFFSET -5.260333 -4.506014 -11.757138
        CHANNELS 3 Zrotation Xrotation Yrotation
        JOINT ElbowLeft
        {
          OFFSET -5.142903 -19.014006 -7.488709
          CHANNELS 3 Zrotation Xrotation Yrotation
          JOINT WristLeft
          {
            OFFSET -2.061754 -22.941793 -0.922206
            CHANNELS 3 Zrotation Xrotation Yrotation
            JOINT HandLeft
            {
              OFFSET -0.905284 -8.546623 1.414191
              CHANNELS 3 Zrotation Xrotation Yrotation
              JOINT HandTipLeft
              {
                OFFSET -0.264111 -5.841594 -0.643765
                CHANNELS 3 Zrotation Xrotation Yrotation
                End Site
                {
                  OFFSET 0 0 0
                }
              }
              JOINT ThumbLeft
              {
                OFFSET 1.993021 0.209463 0.564410
                CHANNELS 3 Zrotation Xrotation Yrotation
                End Site
                {
                  OFFSET 0 0 0
                }
              }
            }
          }
        }
      }
      JOINT ShoulderRight
      {
        OFFSET 8.776546 -6.728709 13.356598
        CHANNELS 3 Zrotation Xrotation Yrotation
        JOINT ElbowRight
        {
          OFFSET -11.724566 -15.095988 -21.121085
          CHANNELS 3 Zrotation Xrotation Yrotation
          JOINT WristRight
          {
            OFFSET -4.613358 -25.968299 -7.911134
            CHANNELS 3 Zrotation Xrotation Yrotation
            JOINT HandRight
            {
              OFFSET -3.362059 -6.638113 0.919793
              CHANNELS 3 Zrotation Xrotation Yrotation
              JOINT HandTipRight
              {
                OFFSET -2.263502 -5.845281 -3.166921
                CHANNELS 3 Zrotation Xrotation Yrotation
                End Site
                {
                  OFFSET 0 0 0
                }
              }
              JOINT ThumbRight
              {
                OFFSET -0.799726 -3.265032 -2.501694
                CHANNELS 3 Zrotation Xrotation Yrotation
                End Site
                {
                  OFFSET 0 0 0
                }
              }
            }
          }
        }
      }
    }
  }
  JOINT HipLeft
  {
    OFFSET -3.323335 1.090908 -5.213086
    CHANNELS 3 Zrotation Xrotation Yrotation
    JOINT KneeLeft
    {
      OFFSET -12.390586 -33.308232 0.292114
      CHANNELS 3 Zrotation Xrotation Yrotation
      JOINT AnkleLeft
      {
        OFFSET -10.843246 -28.322418 5.143202
        CHANNELS 3 Zrotation Xrotation Yrotation
        JOINT FootLeft
        {
          OFFSET 1.255447 -6.449093 0.982490
          CHANNELS 3 Zrotation Xrotation Yrotation
          End Site
          {
            OFFSET 0 0 0
          }
        }
      }
    }
  }
  JOINT HipRight
  {
    OFFSET 2.905479 0.296575 -1.021161
    CHANNELS 3 Zrotation Xrotation Yrotation
    JOINT KneeRight
    {
      OFFSET -9.497552 -34.882272 7.122764
      CHANNELS 3 Zrotation Xrotation Yrotation
      JOINT AnkleRight
      {
        OFFSET -10.923530 -29.432089 13.126586
        CHANNELS 3 Zrotation Xrotation Yrotation
        JOINT FootRight
        {
          OFFSET -0.580189 -7.249965 -3.631158
          CHANNELS 3 Zrotation Xrotation Yrotation
          End Site
          {
            OFFSET 0 0 0
          }
        }
      }
    }
  }
}
MOTION
Frames: 6
Frame Time: 0.033333
27.804132 71.267752 320.986040 -0.000000 0.000000 -33.940127 0.000000 0.000000 33.940127 -0.000000 0.000000 0.000000 -0.000000 0.000000 0.000000 0.000000 0.000000 0.000000 -0.000000 0.000000 0.000000 -0.000000 0.000000 0.000000 -0.000000 0.000000 0.000000 -0.000000 0.000000 0.000000 0.000000 0.000000 0.000000 0.000000 0.000000 0.000000 -0.000000 0.000000 0.000000 -0.000000 0.000000 0.000000 -0.000000 0.000000 0.000000 -0.000000 0.000000 0.000000 0.000000 0.000000 0.000000 0.000000 0.000000 0.000000 0.000000 0.000000 33.940127 -0.000000 0.000000 0.000000 -0.000000 0.000000 0.000000 0.000000 0.000000 0.000000 0.000000 0.000000 33.940127 -0.000000 0.000000 0.000000 -0.000000 0.000000 0.000000 0.000000 0.000000 0.000000
28.058467 71.102288 320.891464 0.273209 0.103568 -34.028635 -0.168468 -0.238722 34.028037 -0.000000 0.000000 0.000000 -0.000000 0.000000 0.000000 0.000000 0.000000 0.000000 -0.000000 0.000000 0.000000 -0.772729 0.630733 -0.021351 1.114225 0.312364 -0.012567 -0.904022 -0.236426 0.064780 0.000000 0.000000 0.000000 0.000000 0.000000 0.000000 -0.000000 0.000000 0.000000 -0.000000 0.000000 0.000000 3.992137 9.744425 -4.875098 -0.453172 -10.951706 3.757125 0.000000 0.000000 0.000000 0.000000 0.000000 0.000000 -0.168468 -0.238722 34.028037 -0.000000 0.000000 0.000000 1.337947 -2.085449 -0.176935 0.000000 0.000000 0.000000 2.028396 -1.955626 34.965360 -2.231539 6.223817 -2.749517 7.173177 -5.121837 -0.191604 0.000000 0.000000 0.000000
28.241579 70.982118 320.843801 0.445648 0.151044 -34.420983 -0.282244 -0.376504 34.419468 -0.000000 0.000000 0.000000 -0.000000 0.000000 0.000000 0.000000 0.000000 0.000000 -0.000000 0.000000 0.000000 -0.917712 1.121018 -0.054818 1.960459 0.749863 0.050879 -1.558331 -0.733967 0.001951 0.000000 0.000000 0.000000 0.000000 0.000000 0.000000 -0.558195 0.253322 0.581470 0.555601 -0.258962 -0.578981 8.008336 16.498167 -8.945264 -0.193310 -19.068982 6.815268 0.000000 0.000000 0.000000 0.000000 0.000000 0.000000 -0.659898 -1.097296 34.549785 1.564482 0.282347 0.047893 1.555440 -3.775075 -0.494756 0.000000 0.000000 0.000000 3.882435 -3.434420 36.226286 -3.961067 11.500988 -4.873726 14.901947 -8.178200 -0.460302 0.000000 0.000000 0.000000
28.353470 70.907242 320.843050 0.518395 0.142875 -35.098410 -0.341991 -0.414958 35.096525 0.966332 0.046609 0.071197 -1.951053 -0.043271 0.177940 0.000000 0.000000 0.000000 -0.966390 -0.045401 -0.071973 -0.373204 1.444217 -0.110003 2.517313 1.313200 0.186097 -2.007232 -1.464528 -0.184184 0.000000 0.000000 0.000000 0.000000 0.000000 0.000000 -1.747621 0.306530 0.743083 0.776617 -0.362005 -0.810822 11.766827 20.851524 -12.114842 0.243190 -24.893682 9.189773 0.000000 0.000000 0.000000 0.000000 0.000000 0.000000 -0.836271 -1.387067 35.269927 2.092680 0.369396 0.063418 2.050565 -5.173909 -0.655858 0.000000 0.000000 0.000000 5.546157 -4.408830 37.656872 -5.292416 15.746969 -6.475420 22.637230 -9.002632 -1.123003 0.000000 0.000000 0.000000
28.394139 70.877661 320.889211 0.491892 0.079153 -36.045045 -0.351152 -0.353435 36.043622 1.194957 0.030370 0.089451 -2.445603 -0.051787 0.236173 0.000000 0.000000 0.000000 -1.447232 -0.788168 0.213205 1.155163 2.332765 -0.508799 2.781199 1.994197 0.385491 -2.284384 -2.400363 -0.481287 0.000000 0.000000 0.000000 0.000000 0.000000 0.000000 -2.162092 0.402856 0.921341 0.960057 -0.446791 -1.004503 15.191360 23.358831 -14.350887 0.425788 -28.986547 10.832574 0.000000 0.000000 0.000000 0.000000 0.000000 0.000000 -0.913619 -1.507386 36.247782 2.459435 0.421730 0.076215 2.331760 -6.203903 -0.783227 0.000000 0.000000 0.000000 6.990698 -4.862570 39.199637 -6.301873 18.922155 -7.627985 29.708050 -7.747876 -2.486081 0.000000 0.000000 0.000000
28.363587 70.893374 320.982285 0.365945 -0.040388 -37.247261 -0.315749 -0.189340 37.246869 1.377847 -0.001745 0.105196 -2.864253 -0.057343 0.294401 0.000000 0.000000 0.000000 -1.284323 -1.088211 0.154630 2.784092 2.589905 -0.601966 2.767629 2.775083 0.638560 -2.406746 -3.514783 -0.868786 0.000000 0.000000 0.000000 0.000000 0.000000 0.000000 -2.493244 0.496675 1.064901 0.319504 -0.574110 -0.915014 19.222673 24.350355 -15.899441 -0.018201 -31.724551 11.625206 0.000000 0.000000 0.000000 0.000000 0.000000 0.000000 -0.899988 -1.455604 37.470224 2.667991 0.439869 0.087591 2.389244 -6.846334 -0.889122 0.000000 0.000000 0.000000 8.175321 -4.786874 40.805824 -7.044312 21.009704 -8.380471 35.574526 -4.856215 -4.672037 0.000000 0.000000 0.000000
